#!OML:ASF I:\Actors\actors\Patient Classification 1\Patient 1\Session 1\Subject1.ASF
:FULLY-SPECIFIED
:DEGREES
190
root -0.578255 17.6975 7.267 18.93 -2.25912 -9.74321
lowerback 18.1014 -0.0798394 -1.60953
upperback 0.281693 -0.786184 -3.32563
thorax -9.91211 -0.391078 -2.50734
lowerneck -14.3106 4.46194 6.07891
upperneck 14.2594 3.78064 5.74979
head 6.74767 2.64813 1.24949
rclavicle 6.36111e-015 2.54444e-014
rhumerus -35.6472 51.5135 -113.289
rradius 72.0314
rwrist -18.6603
rhand -4.14338 -47.5948
rfingers 7.12502
rthumb 21.6163 -436.408
lclavicle 6.36111e-015 2.54444e-014
lhumerus 20.1093 64.5957 109.091
lradius 17.2711
lwrist 7.5401
lhand -13.2795 -6.89184
lfingers 7.12502
lthumb 12.8238 22.6943
rfemur -20.1243 26.3232 20.0449
rtibia 3.0128
rfoot -5.88425 -22.1834
rtoes 2.92272
lfemur -14.9401 -41.0744 3.54536
ltibia -2.75681
lfoot -21.8134 53.5054
ltoes 16.2842
191
root -0.567174 17.691 7.27813 19.0287 -2.02913 -9.61739
lowerback 18.1064 -0.218338 -1.44262
upperback 0.262046 -0.931091 -3.29139
thorax -9.94335 -0.466792 -2.52731
lowerneck -14.3497 4.37409 5.91432
upperneck 14.2068 3.70048 5.72416
head 6.7332 2.59728 1.25883
rclavicle -1.90833e-014 -9.54166e-015
rhumerus -35.2315 52.0527 -113.602
rradius 69.7546
rwrist -16.9588
rhand -4.47388 -46.1037
rfingers 7.12502
rthumb 21.2988 -434.953
lclavicle -1.90833e-014 -9.54166e-015
lhumerus 20.5536 64.6503 109.226
lradius 17.0969
lwrist 7.00604
lhand -16.0187 -6.29598
lfingers 7.12502
lthumb 10.1821 23.4376
rfemur -20.2423 26.1802 19.818
rtibia 3.06726
rfoot -5.96992 -22.3056
rtoes 3.42831
lfemur -15.2739 -41.1376 3.56714
ltibia -2.60717
lfoot -21.5845 53.3819
ltoes 16.0985
192
root -0.55689 17.6891 7.29276 19.2734 -2.14627 -9.61067
lowerback 17.8536 -0.220986 -1.31327
upperback 0.144531 -0.901734 -3.27374
thorax -9.93159 -0.459209 -2.58945
lowerneck -14.594 4.21025 5.53926
upperneck 14.4202 3.47864 6.00498
head 6.83159 2.50509 1.39665
rclavicle 1.11319e-014 8.26944e-014
rhumerus -34.9122 52.821 -114.166
rradius 66.907
rwrist -14.5665
rhand -5.28552 -44.2899
rfingers 7.12502
rthumb 20.5191 -433.226
lclavicle 1.11319e-014 8.26944e-014
lhumerus 23.3959 66.6437 111.912
lradius 16.6293
lwrist 4.30201
lhand -18.6112 -5.54876
lfingers 7.12502
lthumb 7.68043 24.2918
rfemur -20.6187 25.9083 19.6879
rtibia 3.29668
rfoot -5.95521 -21.9274
rtoes 3.57497
lfemur -15.57 -41.0743 3.67633
ltibia -2.49638
lfoot -21.7344 53.4559
ltoes 15.9909
193
root -0.546335 17.6927 7.31589 19.3828 -2.35397 -9.63495
lowerback 17.6287 -0.179294 -1.16806
upperback 0.00147758 -0.813081 -3.25565
thorax -9.96139 -0.424653 -2.67611
lowerneck -14.517 4.04131 5.4084
upperneck 14.2972 3.28426 6.04699
head 6.77578 2.40334 1.40664
rclavicle -7.15625e-015 2.8625e-014
rhumerus -34.1361 53.2205 -114.331
rradius 64.1345
rwrist -14.1696
rhand -5.27285 -42.9276
rfingers 7.12502
rthumb 20.5312 -431.862
lclavicle -7.15625e-015 2.8625e-014
lhumerus 28.154 69.5027 116.744
lradius 16.2164
lwrist 0.901062
lhand -21.8006 -4.59413
lfingers 7.12502
lthumb 4.60129 25.3359
rfemur -20.7606 25.7365 19.6778
rtibia 3.449
rfoot -5.82901 -21.5923
rtoes 3.2598
lfemur -15.5364 -40.6618 3.52399
ltibia -2.43003
lfoot -21.428 53.3288
ltoes 15.4858
194
root -0.536178 17.6968 7.34333 19.408 -2.61814 -9.67159
lowerback 17.3781 -0.126179 -0.999312
upperback -0.179632 -0.704295 -3.22569
thorax -10.0173 -0.38184 -2.76853
lowerneck -14.7829 3.79413 4.99467
upperneck 14.6999 2.92561 6.43929
head 6.94156 2.26 1.57731
rclavicle -1.90833e-014 7.63333e-014
rhumerus -33.4295 53.7142 -114.602
rradius 60.9566
rwrist -13.5453
rhand -5.50451 -41.065
rfingers 7.12502
rthumb 20.3086 -430.023
lclavicle -1.90833e-014 7.63333e-014
lhumerus 31.539 71.1942 120.353
lradius 16.2487
lwrist -0.537556
lhand -26.5276 -3.51714
lfingers 7.12502
lthumb 0.0361438 26.4626
rfemur -20.7751 25.648 19.7307
rtibia 3.59716
rfoot -5.69345 -21.3062
rtoes 2.71592
lfemur -15.2899 -40.0354 3.21486
ltibia -2.40331
lfoot -21.047 53.0182
ltoes 15.0541
195
root -0.526136 17.6997 7.37133 19.3762 -2.94513 -9.6472
lowerback 17.058 -0.0592459 -0.85511
upperback -0.388488 -0.583427 -3.21402
thorax -10.0631 -0.332934 -2.86933
lowerneck -14.5706 3.58108 4.78875
upperneck 14.4925 2.71054 6.44223
head 6.83509 2.13581 1.57981
rclavicle -1.59028e-015 4.77083e-015
rhumerus -32.768 54.4385 -115.006
rradius 57.6595
rwrist -13.0016
rhand -5.88706 -39.2305
rfingers 7.12502
rthumb 19.9409 -428.227
lclavicle -1.59028e-015 4.77083e-015
lhumerus 31.9315 71.4107 121.04
lradius 16.6095
lwrist 0.0366238
lhand -32.5163 -2.41148
lfingers 7.12502
lthumb -5.74723 27.4906
rfemur -20.7639 25.5623 19.7311
rtibia 3.81397
rfoot -5.67714 -20.9644
rtoes 2.23053
lfemur -14.9315 -39.3445 2.74316
ltibia -2.35804
lfoot -20.9672 52.5861
ltoes 15.065
196
root -0.517491 17.7036 7.40486 19.1149 -3.2362 -9.49743
lowerback 16.8332 0.018691 -0.770115
upperback -0.569681 -0.463969 -3.22243
thorax -10.1314 -0.282421 -2.95815
lowerneck -14.8638 3.2631 4.22002
upperneck 15.0838 2.26135 6.91611
head 7.06936 1.95452 1.79716
rclavicle -1.59028e-014 6.36111e-015
rhumerus -32.1549 55.3754 -115.409
rradius 54.75
rwrist -12.9416
rhand -6.29345 -37.7384
rfingers 7.12502
rthumb 19.5502 -426.775
lclavicle -1.59028e-014 6.36111e-015
lhumerus 30.3665 70.6929 119.864
lradius 17.0661
lwrist 1.40441
lhand -38.6222 -1.10437
lfingers 7.12502
lthumb -11.6393 28.5524
rfemur -20.3942 25.5805 19.6982
rtibia 3.90739
rfoot -5.76472 -20.8219
rtoes 2.15936
lfemur -14.2709 -38.4531 1.87751
ltibia -2.28119
lfoot -20.4192 51.8638
ltoes 14.712
197
root -0.509547 17.7082 7.44232 18.6746 -3.46795 -9.27371
lowerback 16.6805 0.131096 -0.713222
upperback -0.734997 -0.303602 -3.20956
thorax -10.2203 -0.210503 -3.01836
lowerneck -15.0251 2.84273 3.65567
upperneck 15.4788 1.72133 7.23203
head 7.22503 1.70775 1.94642
rclavicle 2.62396e-014 5.88403e-014
rhumerus -31.5844 56.2878 -115.573
rradius 52.5857
rwrist -13.0556
rhand -6.47891 -36.6024
rfingers 7.12502
rthumb 19.3719 -425.657
lclavicle 2.62396e-014 5.88403e-014
lhumerus 26.6691 68.6082 116.682
lradius 17.6998
lwrist 4.26485
lhand -44.321 0.915657
lfingers 7.12502
lthumb -17.1302 30.1805
rfemur -19.6831 25.68 19.6895
rtibia 3.82626
rfoot -5.85347 -20.8833
rtoes 2.31022
lfemur -13.4152 -37.4741 0.788307
ltibia -2.18244
lfoot -19.4496 50.9689
ltoes 13.7476
198
root -0.497609 17.7098 7.47836 18.2906 -3.78862 -8.95422
lowerback 16.3947 0.307384 -0.73801
upperback -0.957083 -0.0693299 -3.1658
thorax -10.2917 -0.0981996 -3.01508
lowerneck -14.9298 2.4104 3.36987
upperneck 15.6453 1.21764 7.08071
head 7.26987 1.43992 1.89158
rclavicle 8.74653e-015 -9.54166e-015
rhumerus -31.082 57.0708 -115.43
rradius 51.3159
rwrist -13.0533
rhand -6.33318 -35.7327
rfingers 7.12502
rthumb 19.512 -424.774
lclavicle 8.74653e-015 -9.54166e-015
lhumerus 21.6815 64.8278 112.397
lradius 18.6813
lwrist 8.84097
lhand -46.4895 1.18733
lfingers 7.12502
lthumb -19.2165 30.2579
rfemur -19.0532 25.6562 19.5321
rtibia 3.72558
rfoot -5.82359 -20.7498
rtoes 1.87966
lfemur -12.6868 -36.7106 -0.342017
ltibia -2.00309
lfoot -18.9367 50.2719
ltoes 13.0111
199
root -0.482137 17.7079 7.51421 17.9536 -4.22062 -8.58723
lowerback 15.9742 0.542109 -0.831054
upperback -1.23203 0.237034 -3.075
thorax -10.3413 0.05401 -2.93642
lowerneck -15.1168 1.95835 3.05668
upperneck 16.3417 0.657808 6.83774
head 7.54005 1.15584 1.8187
rclavicle -1.35174e-014 1.43125e-014
rhumerus -30.6469 57.5067 -114.949
rradius 51.039
rwrist -12.8805
rhand -6.4431 -35.0406
rfingers 7.12502
rthumb 19.4064 -424.092
lclavicle -1.35174e-014 1.43125e-014
lhumerus 16.2189 58.5813 107.863
lradius 20.4352
lwrist 15.7207
lhand -47.4713 0.760838
lfingers 7.12502
lthumb -20.1603 29.7347
rfemur -18.5349 25.5386 19.272
rtibia 3.6733
rfoot -5.79726 -20.4054
rtoes 1.30049
lfemur -12.0371 -35.8094 -1.52255
ltibia -1.7556
lfoot -18.3771 49.5534
ltoes 12.2218
